<svg data-v-fde0c5aa="" xmlns="http://www.w3.org/2000/svg" viewBox="0 0 300 300" class="iconLeft"><!----><defs data-v-fde0c5aa=""><!----></defs><rect data-v-fde0c5aa="" fill="#2B282C" x="0" y="0" width="300px" height="300px" class="logo-background-square"></rect><defs data-v-fde0c5aa=""><!----></defs><g data-v-fde0c5aa="" id="f9e87d06-5216-4620-8ea4-c5cffcc7d5f8" fill="#ffffff" transform="matrix(2.3462357335851927,0,0,2.3462357335851927,99.5409460450785,126.51418032918767)"><path d="M1.12 13.51L1.12 3.71L2.45 3.71L2.45 7.76L7.43 7.76L7.43 3.71L8.76 3.71L8.76 13.51L7.43 13.51L7.43 9.02L2.45 9.02L2.45 13.51L1.12 13.51ZM13.73 13.65L13.73 13.65Q12.68 13.65 11.91 13.18L11.91 13.18L11.91 13.18Q11.14 12.71 10.74 11.90L10.74 11.90L10.74 11.90Q10.33 11.09 10.33 10.08L10.33 10.08L10.33 10.08Q10.33 9.07 10.74 8.26L10.74 8.26L10.74 8.26Q11.14 7.45 11.91 6.98L11.91 6.98L11.91 6.98Q12.68 6.51 13.73 6.51L13.73 6.51L13.73 6.51Q14.77 6.51 15.55 6.98L15.55 6.98L15.55 6.98Q16.32 7.45 16.73 8.26L16.73 8.26L16.73 8.26Q17.14 9.07 17.14 10.08L17.14 10.08L17.14 10.08Q17.14 11.09 16.73 11.90L16.73 11.90L16.73 11.90Q16.32 12.71 15.55 13.18L15.55 13.18L15.55 13.18Q14.77 13.65 13.73 13.65L13.73 13.65ZM13.73 12.53L13.73 12.53Q14.74 12.53 15.30 11.89L15.30 11.89L15.30 11.89Q15.85 11.24 15.85 10.08L15.85 10.08L15.85 10.08Q15.85 8.92 15.30 8.27L15.30 8.27L15.30 8.27Q14.74 7.63 13.73 7.63L13.73 7.63L13.73 7.63Q12.73 7.63 12.17 8.27L12.17 8.27L12.17 8.27Q11.62 8.92 11.62 10.08L11.62 10.08L11.62 10.08Q11.62 11.24 12.17 11.89L12.17 11.89L12.17 11.89Q12.73 12.53 13.73 12.53L13.73 12.53ZM20.03 13.65L20.03 13.65Q19.08 13.65 18.50 13.09L18.50 13.09L18.50 13.09Q17.92 12.53 17.92 11.66L17.92 11.66L17.92 11.66Q17.92 10.36 19.15 9.80L19.15 9.80L19.15 9.80Q20.38 9.24 22.02 9.21L22.02 9.21L22.02 9.21Q22.02 8.29 21.66 7.96L21.66 7.96L21.66 7.96Q21.31 7.63 20.52 7.63L20.52 7.63L20.52 7.63Q20.09 7.63 19.66 7.76L19.66 7.76L19.66 7.76Q19.22 7.90 18.72 8.25L18.72 8.25L18.54 7.22L18.54 7.22Q18.96 6.90 19.57 6.71L19.57 6.71L19.57 6.71Q20.19 6.51 20.86 6.51L20.86 6.51L20.86 6.51Q21.74 6.51 22.27 6.82L22.27 6.82L22.27 6.82Q22.79 7.13 23.04 7.84L23.04 7.84L23.04 7.84Q23.28 8.55 23.28 9.80L23.28 9.80L23.28 11.20L23.28 11.20Q23.28 11.76 23.33 12.05L23.33 12.05L23.33 12.05Q23.38 12.33 23.55 12.49L23.55 12.49L23.55 12.49Q23.72 12.64 24.07 12.64L24.07 12.64L24.19 12.64L24.00 13.65L23.90 13.65L23.90 13.65Q23.31 13.65 22.97 13.54L22.97 13.54L22.97 13.54Q22.64 13.43 22.46 13.22L22.46 13.22L22.46 13.22Q22.29 13.01 22.13 12.64L22.13 12.64L22.13 12.64Q21.27 13.65 20.03 13.65L20.03 13.65ZM20.27 12.64L20.27 12.64Q20.78 12.64 21.25 12.39L21.25 12.39L21.25 12.39Q21.71 12.14 22.02 11.72L22.02 11.72L22.02 10.08L22.02 10.08Q20.51 10.14 19.86 10.48L19.86 10.48L19.86 10.48Q19.21 10.82 19.21 11.59L19.21 11.59L19.21 11.59Q19.21 12.12 19.50 12.38L19.50 12.38L19.50 12.38Q19.78 12.64 20.27 12.64L20.27 12.64ZM28.55 6.51L28.55 6.51Q31.35 6.51 31.35 9.73L31.35 9.73L31.35 13.51L30.09 13.51L30.09 9.73L30.09 9.73Q30.09 8.62 29.67 8.13L29.67 8.13L29.67 8.13Q29.26 7.63 28.29 7.63L28.29 7.63L28.29 7.63Q27.68 7.63 27.17 7.85L27.17 7.85L27.17 7.85Q26.67 8.08 26.42 8.53L26.42 8.53L26.42 13.51L25.16 13.51L25.16 6.65L26.14 6.65L26.28 7.38L26.28 7.38Q26.82 6.89 27.38 6.70L27.38 6.70L27.38 6.70Q27.93 6.51 28.55 6.51L28.55 6.51ZM35.76 17.01L35.76 17.01Q34.30 17.01 33.40 16.48L33.40 16.48L33.40 16.48Q32.49 15.95 32.49 14.97L32.49 14.97L32.49 14.97Q32.49 13.89 33.68 13.36L33.68 13.36L33.68 13.36Q33.01 13.02 33.01 12.49L33.01 12.49L33.01 12.49Q33.01 11.82 33.82 11.49L33.82 11.49L33.82 11.49Q33.25 11.14 32.94 10.54L32.94 10.54L32.94 10.54Q32.63 9.94 32.63 9.18L32.63 9.18L32.63 9.18Q32.63 8.43 32.98 7.82L32.98 7.82L32.98 7.82Q33.32 7.21 33.96 6.86L33.96 6.86L33.96 6.86Q34.59 6.51 35.46 6.51L35.46 6.51L35.46 6.51Q36.39 6.51 37.14 7.04L37.14 7.04L37.14 7.04Q37.88 6.62 38.85 6.62L38.85 6.62L38.96 6.62L38.81 7.46L38.49 7.46L38.49 7.46Q38.36 7.46 38.12 7.49L38.12 7.49L38.12 7.49Q37.88 7.52 37.70 7.56L37.70 7.56L37.70 7.56Q38.00 7.90 38.15 8.32L38.15 8.32L38.15 8.32Q38.30 8.74 38.30 9.18L38.30 9.18L38.30 9.18Q38.30 9.97 37.96 10.59L37.96 10.59L37.96 10.59Q37.62 11.21 36.97 11.57L36.97 11.57L36.97 11.57Q36.33 11.93 35.46 11.93L35.46 11.93L35.46 11.93Q34.96 11.93 34.54 11.80L34.54 11.80L34.54 11.80Q34.22 11.91 34.22 12.17L34.22 12.17L34.22 12.17Q34.22 12.50 34.99 12.61L34.99 12.61L36.82 12.91L36.82 12.91Q37.97 13.09 38.56 13.57L38.56 13.57L38.56 13.57Q39.14 14.04 39.14 14.88L39.14 14.88L39.14 14.88Q39.14 15.93 38.24 16.47L38.24 16.47L38.24 16.47Q37.34 17.01 35.76 17.01L35.76 17.01ZM35.46 10.92L35.46 10.92Q36.25 10.92 36.67 10.45L36.67 10.45L36.67 10.45Q37.10 9.98 37.10 9.20L37.10 9.20L37.10 9.20Q37.10 8.44 36.67 7.98L36.67 7.98L36.67 7.98Q36.25 7.52 35.46 7.52L35.46 7.52L35.46 7.52Q34.68 7.52 34.26 7.98L34.26 7.98L34.26 7.98Q33.84 8.44 33.84 9.20L33.84 9.20L33.84 9.20Q33.84 9.98 34.26 10.45L34.26 10.45L34.26 10.45Q34.68 10.92 35.46 10.92L35.46 10.92ZM35.87 15.89L35.87 15.89Q36.83 15.89 37.35 15.64L37.35 15.64L37.35 15.64Q37.87 15.39 37.87 14.91L37.87 14.91L37.87 14.91Q37.87 14.55 37.55 14.33L37.55 14.33L37.55 14.33Q37.24 14.11 36.61 13.99L36.61 13.99L34.65 13.65L34.65 13.65Q34.23 13.85 33.96 14.13L33.96 14.13L33.96 14.13Q33.70 14.42 33.70 14.77L33.70 14.77L33.70 14.77Q33.70 15.34 34.27 15.62L34.27 15.62L34.27 15.62Q34.85 15.89 35.87 15.89L35.87 15.89ZM49.34 3.71L50.74 3.71L47.22 13.51L45.82 13.51L42.31 3.71L43.71 3.71L46.52 11.65L49.34 3.71ZM51.65 5.11L51.65 3.71L52.91 3.71L52.91 5.11L51.65 5.11ZM51.65 13.51L51.65 6.65L52.91 6.65L52.91 13.51L51.65 13.51ZM58.00 6.51L58.00 6.51Q60.80 6.51 60.80 9.73L60.80 9.73L60.80 13.51L59.54 13.51L59.54 9.73L59.54 9.73Q59.54 8.62 59.13 8.13L59.13 8.13L59.13 8.13Q58.72 7.63 57.75 7.63L57.75 7.63L57.75 7.63Q57.13 7.63 56.63 7.85L56.63 7.85L56.63 7.85Q56.13 8.08 55.87 8.53L55.87 8.53L55.87 13.51L54.61 13.51L54.61 6.65L55.59 6.65L55.73 7.38L55.73 7.38Q56.28 6.89 56.83 6.70L56.83 6.70L56.83 6.70Q57.39 6.51 58.00 6.51L58.00 6.51ZM65.72 6.51L65.72 6.51Q67.02 6.51 67.70 7.36L67.70 7.36L67.70 7.36Q68.39 8.22 68.39 9.69L68.39 9.69L68.39 13.51L67.13 13.51L67.13 9.84L67.13 9.84Q67.13 8.71 66.72 8.17L66.72 8.17L66.72 8.17Q66.30 7.63 65.44 7.63L65.44 7.63L65.44 7.63Q64.90 7.63 64.46 7.88L64.46 7.88L64.46 7.88Q64.01 8.12 63.70 8.57L63.70 8.57L63.70 13.51L62.43 13.51L62.43 3.01L63.70 3.01L63.70 7.31L63.70 7.31Q64.11 6.92 64.59 6.71L64.59 6.71L64.59 6.71Q65.07 6.51 65.72 6.51L65.72 6.51Z"></path></g><defs data-v-fde0c5aa=""><!----></defs><g data-v-fde0c5aa="" id="3241e00d-2301-4c72-ac00-2e65b4ff0c06" stroke="none" fill="#746657" transform="matrix(0.5111094359481114,0,0,0.5111094359481114,39.02889226667136,124.39341706402683)"><path d="M88.6 40.5c-4.1 0-7.6 2.6-8.9 6.3H65.9c-.4-2.1-1.3-4.1-2.4-5.8l9.7-9.7c3.5 1.7 7.8 1 10.7-1.9A9.476 9.476 0 0 0 70.5 16c-2.9 2.9-3.5 7.2-1.9 10.7L59 36.5c-1.7-1.2-3.7-2-5.8-2.4V20.3c3.7-1.3 6.3-4.8 6.3-8.9 0-5.2-4.2-9.5-9.5-9.5s-9.5 4.2-9.5 9.5c0 4.1 2.6 7.6 6.3 8.9v13.8c-2.1.4-4.1 1.3-5.8 2.4l-9.7-9.7c1.7-3.5 1-7.8-1.9-10.7A9.476 9.476 0 0 0 16 29.5c2.9 2.9 7.2 3.5 10.7 1.9l9.7 9.7c-1.2 1.7-2 3.7-2.4 5.8H20.3c-1.3-3.7-4.8-6.3-8.9-6.3-5.2 0-9.5 4.2-9.5 9.5 0 5.2 4.2 9.5 9.5 9.5 4.1 0 7.6-2.6 8.9-6.3h13.8c.4 2.1 1.3 4.1 2.4 5.8l-9.7 9.7c-3.5-1.7-7.8-1-10.7 1.9a9.476 9.476 0 0 0 13.4 13.4c2.9-2.9 3.5-7.2 1.9-10.7l9.7-9.7c1.7 1.2 3.7 2 5.8 2.4v13.8c-3.7 1.3-6.3 4.8-6.3 8.9 0 5.2 4.2 9.5 9.5 9.5s9.5-4.2 9.5-9.5c0-4.1-2.6-7.6-6.3-8.9v-14c2.1-.4 4.1-1.3 5.8-2.4l9.7 9.7c-1.7 3.5-1 7.8 1.9 10.7a9.476 9.476 0 0 0 13.4-13.4c-2.9-2.9-7.2-3.5-10.7-1.9L63.5 59c1.2-1.7 2-3.7 2.4-5.8h13.8c1.3 3.7 4.8 6.3 8.9 6.3 5.2 0 9.5-4.2 9.5-9.5 0-5.2-4.3-9.5-9.5-9.5zM50 59.2c-5.1 0-9.2-4.1-9.2-9.2s4.1-9.2 9.2-9.2 9.2 4.1 9.2 9.2-4.1 9.2-9.2 9.2z"></path></g><!----></svg>